# xmcd
#
# Track frame offsets: 
#        150
#        19502
#        38617
#        54947
#        69400
#        85402
#        110390
#        128520
#        144897
#        162602
#        182205
#        202675
#        215057
#        229765
#        249932
#
# Disc length: 3546 seconds
#
# Revision: 1
# Processed by: cddbd v1.5.2PL0 Copyright (c) Steve Scherf et al.
# Submitted via: ExactAudioCopyFreeDBPlugin 1.0
#
DISCID=bf0dd80f
DTITLE=Melky Sedeck - Sister&Brother
DYEAR=1999
DGENRE=R&B
TTITLE0=Shake It
TTITLE1=Foolish Heart
TTITLE2=To Sir, With Love
TTITLE3=Light My Fire
TTITLE4=Mi Amor
TTITLE5=Raw
TTITLE6=In Time
TTITLE7=Easy Slow Down
TTITLE8=#1 Guy
TTITLE9=Paradise
TTITLE10=Raw Phase II Attraction
TTITLE11=High Heel Shoes
TTITLE12=Diva
TTITLE13=Armageddon
TTITLE14=Bonus Track
EXTD=ID3G: 14
EXTT0=
EXTT1=
EXTT2=
EXTT3=
EXTT4=
EXTT5=
EXTT6=
EXTT7=
EXTT8=
EXTT9=
EXTT10=
EXTT11=
EXTT12=
EXTT13=
EXTT14=
PLAYORDER=
